<svg width="230" height="57" viewBox="0 0 230 57" fill="none" xmlns="http://www.w3.org/2000/svg">
<path fill-rule="evenodd" clip-rule="evenodd" d="M204.792 17.1734C204.843 5.72889 203.733 6.03139 208.422 6.03139C213.061 6.03139 212.254 5.27515 212.254 17.1734C214.724 17.1734 217.195 17.1734 219.615 17.1734C223.295 17.1734 223.396 17.0726 223.396 20.753C223.396 25.3913 224.051 24.6855 212.254 24.5847C211.851 35.3234 213.817 35.7267 208.573 35.7267C202.927 35.7267 205.347 35.273 204.742 24.5847C193.449 24.5847 193.6 25.5426 193.6 20.9043C193.6 17.1734 193.449 17.123 197.23 17.123C199.801 17.1734 202.322 17.1734 204.792 17.1734ZM187.55 4.26681C187.096 6.58597 187.298 10.0647 187.298 12.636C187.298 15.5097 187.298 18.4339 187.298 21.3076C187.298 24.8367 186.794 35.7771 187.852 38.2475C188.457 39.5079 189.415 40.5163 190.625 41.1213C192.239 41.9279 194.154 41.7263 196.121 41.7263H219.816C223.799 41.7263 225.866 42.2808 228.337 39.6592C228.74 39.2054 228.589 39.2054 229.093 38.8525C229.345 37.1888 229.799 38.3988 229.799 34.315V7.44306C229.799 3.71224 228.74 1.59474 225.917 0.485578C223.95 -0.27067 199.549 0.0822519 194.104 0.0822519C189.718 0.0822519 189.012 1.69557 187.55 4.26681Z" fill="#2B3695"/>
<path fill-rule="evenodd" clip-rule="evenodd" d="M30.5019 6.03163C30.5019 6.73746 26.1157 24.1816 25.662 24.9378L20.6707 5.67872L7.61285 5.57788C7.56244 8.95578 7.41119 36.7353 7.71369 37.7436H15.6291C15.9316 36.584 15.6795 16.7199 15.7299 13.5941C16.6374 15.6108 21.427 36.584 22.0824 37.7436H29.2919C29.9473 36.1303 30.4011 33.559 30.8548 31.7944L33.9303 19.8457C34.1823 18.8878 34.4344 17.9299 34.6865 16.9216C34.7873 16.4174 34.9386 15.9637 35.0394 15.4595C35.1907 14.9049 35.2411 14.3503 35.594 13.8966L35.6444 37.6932L43.6606 37.7436L43.7615 5.57788H31.5607C30.6028 5.6283 31.0565 5.52746 30.5019 6.03163Z" fill="#2B3695"/>
<path fill-rule="evenodd" clip-rule="evenodd" d="M7.51172 51.2046H113.84V45.1547H7.51172V45.8605V50.5492V51.2046Z" fill="#2B3695"/>
<path fill-rule="evenodd" clip-rule="evenodd" d="M84.1451 27.8116C83.6914 24.9378 84.2964 21.7616 86.4643 20.8541C89.2876 19.6441 91.4051 22.1649 91.7076 24.4841C92.9176 33.1053 85.0526 33.9624 84.1451 27.8116ZM75.171 23.9799C74.8181 28.3157 75.6247 32.2986 78.2968 35.5253C80.2631 37.9453 84.0947 38.7015 87.0693 38.0461C88.9851 37.5923 89.8926 36.9369 91.2034 35.6765C91.6572 35.2228 91.9093 34.769 92.363 34.4161V37.7436H100.631C100.883 36.584 100.732 7.03996 100.682 5.57788H91.7076V16.6191C90.8001 16.0645 90.4472 15.3083 88.4305 14.5016C84.2964 12.9387 80.2127 14.2495 77.4902 17.4258C76.0785 19.1903 75.3727 21.812 75.171 23.9799Z" fill="#2B3695"/>
<path fill-rule="evenodd" clip-rule="evenodd" d="M56.0122 24.0301C55.6593 21.4589 57.8272 19.2405 60.2976 19.1901C63.2218 19.1901 64.3814 21.2068 64.6335 24.0301H56.0122ZM48.0464 31.9455C49.6598 35.5755 52.4327 37.1384 56.0122 37.9451C57.8272 38.3484 59.7935 38.3484 61.6589 38.2475C63.0705 38.1971 64.5326 38.0459 65.8435 37.693C69.8768 36.6846 71.0868 34.4159 71.7422 33.9621C72.1455 33.3571 73.0026 32.3488 73.1538 31.6934L64.4822 30.9372C63.7764 31.643 63.5747 32.1472 62.3143 32.6513C59.491 33.7605 56.2139 32.5001 55.861 28.3155H73.7588C73.4059 23.0722 73.1538 18.3331 67.8601 15.5097C64.7343 13.846 59.6422 13.4426 55.8106 14.3501C52.1806 15.2072 49.6094 17.123 47.9456 20.3497C46.2819 23.7276 46.3827 28.618 48.0464 31.9455Z" fill="#2B3695"/>
<path fill-rule="evenodd" clip-rule="evenodd" d="M177.517 23.8789H164.56C164.862 20.1481 167.131 17.3248 170.912 17.2239C175.046 17.0223 177.264 20.0473 177.517 23.8789ZM141.822 10.1656H145.754V5.72898L141.822 5.67858V10.1656ZM141.923 37.8947C143.032 37.4914 144.544 37.8443 145.805 37.7435V14.8039C145.704 14.3502 145.905 14.7031 145.553 14.5015H141.872L141.923 37.8947ZM155.333 5.22482C155.132 5.37607 155.434 5.22483 154.98 5.4265C154.93 5.4265 154.779 5.52732 154.728 5.52732C150.846 7.34231 151.3 9.91356 151.3 14.451C150.695 14.451 150.04 14.451 149.435 14.451C147.67 14.4006 147.973 14.3502 147.821 14.7535L147.872 17.5265H151.3L151.35 37.7435L155.232 37.693V17.5265H159.72C159.77 17.3248 160.022 14.5519 159.518 14.451H155.232C155.132 9.20773 155.333 8.1994 160.829 8.85481L161.383 5.4769C159.921 5.12398 158.358 5.02316 156.745 5.07357L155.333 5.22482ZM138.645 34.0126L122.815 33.9622C122.613 32.0464 122.663 6.43482 122.865 5.62816H118.529L118.58 37.7435L138.595 37.693L138.645 34.0126ZM166.526 14.7535C166.122 15.1065 165.114 15.5602 164.56 15.9635C159.316 19.9969 159.215 28.7693 161.837 33.3068C163.35 35.878 166.022 37.9451 170.206 38.2476C176.811 38.7014 178.374 35.5755 179.684 34.7689C180.088 33.7605 181.55 32.1472 181.399 30.786L177.517 30.2818C176.811 31.2901 176.609 32.8531 174.845 34.0126C171.265 36.3822 164.66 35.021 164.257 27.1056H181.6C182.004 20.7531 179.13 15.1065 173.03 14.0981C170.307 13.6444 168.895 14.1485 166.526 14.7535Z" fill="#6D6E70"/>
<path fill-rule="evenodd" clip-rule="evenodd" d="M104.866 37.7433H113.84L113.79 14.4509H104.917L104.866 37.7433Z" fill="#2B3695"/>
<path fill-rule="evenodd" clip-rule="evenodd" d="M104.866 11.678H113.84V5.62805H104.917L104.866 11.678Z" fill="#2B3695"/>
<path d="M118.479 53.5237V43.4908H120.495L122.865 50.5996C123.066 51.255 123.268 51.7591 123.369 52.1121C123.47 51.7591 123.671 51.2046 123.924 50.4987L126.343 43.4908H128.108V53.5237H126.848V45.1042L123.924 53.5237H122.713L119.789 44.9529V53.5237H118.479ZM135.015 51.1541L136.276 51.3054C136.074 52.0616 135.721 52.6162 135.166 53.0196C134.612 53.4229 133.956 53.6245 133.099 53.6245C132.041 53.6245 131.183 53.3221 130.578 52.6666C129.973 52.0112 129.621 51.1037 129.621 49.8937C129.621 48.6837 129.923 47.7258 130.578 47.0704C131.183 46.415 132.041 46.0621 133.049 46.0621C134.007 46.0621 134.813 46.415 135.418 47.0704C136.023 47.7258 136.326 48.6837 136.326 49.8433C136.326 49.8937 136.326 50.045 136.326 50.1962H130.881C130.931 51.0029 131.133 51.6079 131.536 52.0112C131.94 52.4146 132.444 52.6666 133.049 52.6666C133.503 52.6666 133.906 52.5658 134.208 52.3137C134.561 52.0616 134.813 51.6583 135.015 51.1541ZM130.982 49.1879H135.015C134.965 48.5829 134.813 48.1292 134.561 47.8267C134.158 47.3729 133.654 47.1208 133.049 47.1208C132.494 47.1208 131.99 47.3225 131.637 47.6754C131.234 48.0283 131.032 48.5325 130.982 49.1879ZM142.578 53.5237V52.6162C142.124 53.322 141.418 53.675 140.561 53.675C140.006 53.675 139.452 53.5237 138.948 53.1708C138.443 52.8683 138.091 52.4146 137.838 51.8096C137.586 51.255 137.435 50.5996 137.435 49.8433C137.435 49.1375 137.536 48.4821 137.788 47.8771C138.04 47.2721 138.393 46.8183 138.897 46.5158C139.401 46.2133 139.906 46.0621 140.511 46.0621C140.964 46.0621 141.317 46.1629 141.67 46.3646C142.023 46.5662 142.275 46.7679 142.527 47.0704V43.4404H143.737V53.4733H142.578V53.5237ZM138.645 49.8937C138.645 50.8012 138.847 51.5071 139.25 51.9608C139.653 52.4146 140.107 52.6666 140.662 52.6666C141.216 52.6666 141.67 52.465 142.023 52.0112C142.376 51.5575 142.578 50.9021 142.578 49.9946C142.578 48.9862 142.376 48.2804 142.023 47.8267C141.62 47.3729 141.166 47.1208 140.611 47.1208C140.057 47.1208 139.603 47.3225 139.25 47.7762C138.847 48.23 138.645 48.9358 138.645 49.8937ZM145.653 44.8521V43.4404H146.863V44.8521H145.653ZM145.653 53.5237V46.2133H146.863V53.5237H145.653ZM153.518 50.8516L154.728 51.0029C154.577 51.8096 154.274 52.465 153.72 52.9691C153.165 53.4229 152.51 53.675 151.703 53.675C150.695 53.675 149.888 53.3725 149.283 52.7171C148.678 52.0616 148.375 51.1541 148.375 49.9442C148.375 49.1375 148.527 48.4821 148.779 47.8771C149.031 47.2721 149.434 46.8687 149.989 46.5662C150.543 46.2637 151.098 46.1125 151.703 46.1125C152.51 46.1125 153.115 46.3142 153.619 46.7175C154.123 47.1208 154.425 47.6754 154.577 48.4317L153.367 48.6333C153.266 48.1292 153.064 47.7762 152.762 47.5242C152.459 47.2721 152.106 47.1712 151.703 47.1712C151.098 47.1712 150.594 47.3729 150.19 47.8267C149.787 48.2804 149.585 48.9862 149.585 49.9442C149.585 50.9021 149.787 51.6079 150.14 52.0616C150.493 52.5154 150.997 52.7171 151.602 52.7171C152.106 52.7171 152.51 52.5658 152.812 52.2633C153.266 51.9104 153.468 51.4566 153.518 50.8516ZM155.787 44.8521V43.4404H156.997V44.8521H155.787ZM155.787 53.5237V46.2133H156.997V53.5237H155.787ZM158.913 53.5237V46.2133H160.022V47.2721C160.576 46.4654 161.333 46.0621 162.341 46.0621C162.795 46.0621 163.198 46.1629 163.551 46.3142C163.904 46.4654 164.206 46.6671 164.358 46.9192C164.559 47.1712 164.66 47.4737 164.761 47.8267C164.811 48.0787 164.811 48.4317 164.811 49.0367V53.5237H163.601V49.0871C163.601 48.5829 163.551 48.23 163.45 47.9779C163.349 47.7258 163.198 47.5242 162.946 47.3729C162.694 47.2217 162.391 47.1712 162.089 47.1712C161.585 47.1712 161.131 47.3225 160.728 47.6754C160.324 48.0283 160.173 48.6333 160.173 49.5912V53.5741H158.913V53.5237ZM171.466 52.6162C171.012 53.0195 170.559 53.2716 170.155 53.4229C169.752 53.5741 169.298 53.675 168.794 53.675C167.987 53.675 167.382 53.4733 166.929 53.07C166.475 52.6666 166.273 52.1625 166.273 51.5575C166.273 51.2046 166.374 50.8516 166.525 50.5996C166.677 50.2971 166.878 50.0954 167.181 49.8937C167.433 49.6921 167.735 49.5912 168.088 49.4904C168.34 49.44 168.693 49.3896 169.197 49.2887C170.206 49.1879 170.912 49.0367 171.416 48.8854C171.416 48.7342 171.416 48.6333 171.416 48.5829C171.416 48.0787 171.315 47.7258 171.063 47.5242C170.76 47.2217 170.256 47.1208 169.651 47.1208C169.046 47.1208 168.643 47.2217 168.34 47.4233C168.038 47.625 167.836 47.9779 167.735 48.4821L166.525 48.3308C166.626 47.8267 166.828 47.3729 167.08 47.0704C167.332 46.7679 167.685 46.5158 168.189 46.3142C168.643 46.1629 169.197 46.0621 169.853 46.0621C170.458 46.0621 170.962 46.1125 171.365 46.2638C171.769 46.415 172.021 46.6167 172.222 46.8183C172.424 47.02 172.525 47.3225 172.626 47.6754C172.676 47.8771 172.676 48.2804 172.676 48.835V50.4483C172.676 51.6079 172.727 52.3137 172.777 52.6162C172.827 52.9187 172.928 53.2212 173.08 53.4733H171.718C171.567 53.2716 171.517 52.9691 171.466 52.6162ZM171.365 49.8433C170.912 50.045 170.256 50.1962 169.349 50.2971C168.845 50.3475 168.492 50.4483 168.29 50.5492C168.088 50.65 167.937 50.7508 167.786 50.9525C167.685 51.1037 167.635 51.3054 167.635 51.5575C167.635 51.86 167.735 52.1625 167.987 52.3641C168.24 52.5658 168.592 52.6666 169.097 52.6666C169.55 52.6666 170.004 52.5658 170.357 52.3641C170.71 52.1625 171.012 51.86 171.164 51.5071C171.315 51.2046 171.365 50.8012 171.365 50.2971V49.8433ZM178.575 53.5237V43.4908H182.356C183.012 43.4908 183.516 43.5413 183.869 43.5917C184.373 43.6925 184.776 43.8438 185.129 44.0454C185.482 44.2975 185.734 44.6 185.936 45.0033C186.137 45.4067 186.238 45.8604 186.238 46.3646C186.238 47.2217 185.986 47.9275 185.432 48.5325C184.877 49.1375 183.919 49.44 182.507 49.44H179.936V53.5237H178.575ZM179.886 48.23H182.457C183.314 48.23 183.919 48.0787 184.272 47.7258C184.625 47.4233 184.827 46.9696 184.827 46.3646C184.827 45.9612 184.726 45.6083 184.524 45.3058C184.322 45.0033 184.02 44.8017 183.667 44.7008C183.465 44.6504 183.012 44.6 182.407 44.6H179.835V48.23H179.886ZM187.751 53.5237V46.2133H188.86V47.3225C189.162 46.8183 189.414 46.4654 189.667 46.3142C189.919 46.1629 190.171 46.0621 190.473 46.0621C190.877 46.0621 191.33 46.2133 191.734 46.4654L191.28 47.625C190.977 47.4737 190.675 47.3729 190.372 47.3729C190.12 47.3729 189.868 47.4737 189.667 47.625C189.465 47.7762 189.314 48.0283 189.213 48.2804C189.062 48.7342 189.011 49.1879 189.011 49.7425V53.5741H187.751V53.5237ZM197.431 51.1541L198.691 51.3054C198.489 52.0616 198.137 52.6162 197.582 53.0196C197.027 53.4229 196.372 53.6245 195.515 53.6245C194.456 53.6245 193.599 53.3221 192.994 52.6666C192.389 52.0112 192.036 51.1037 192.036 49.8937C192.036 48.6837 192.339 47.7258 192.994 47.0704C193.599 46.415 194.456 46.0621 195.464 46.0621C196.422 46.0621 197.229 46.415 197.834 47.0704C198.439 47.7258 198.742 48.6837 198.742 49.8433C198.742 49.8937 198.742 50.045 198.742 50.1962H193.297C193.347 51.0029 193.549 51.6079 193.952 52.0112C194.355 52.4146 194.859 52.6666 195.464 52.6666C195.918 52.6666 196.322 52.5658 196.624 52.3137C196.977 52.0616 197.229 51.6583 197.431 51.1541ZM193.347 49.1879H197.38C197.33 48.5829 197.179 48.1292 196.927 47.8267C196.523 47.3729 196.019 47.1208 195.414 47.1208C194.859 47.1208 194.355 47.3225 194.002 47.6754C193.599 48.0283 193.397 48.5325 193.347 49.1879ZM200.254 56.2966V46.2133H201.363V47.1712C201.615 46.8183 201.918 46.5158 202.271 46.3142C202.624 46.1125 203.027 46.0117 203.481 46.0117C204.086 46.0117 204.64 46.1629 205.144 46.5158C205.598 46.8183 206.002 47.2721 206.203 47.8771C206.455 48.4821 206.556 49.0871 206.556 49.7929C206.556 50.5492 206.405 51.2046 206.153 51.8096C205.901 52.4146 205.497 52.8683 204.993 53.1708C204.489 53.4733 203.934 53.6245 203.38 53.6245C202.977 53.6245 202.624 53.5237 202.271 53.3725C201.968 53.2212 201.666 52.9691 201.464 52.7171V56.2966H200.254ZM201.363 49.8937C201.363 50.8516 201.565 51.5071 201.918 51.9608C202.321 52.4146 202.775 52.6162 203.279 52.6162C203.834 52.6162 204.287 52.3641 204.691 51.9104C205.094 51.4566 205.296 50.7508 205.296 49.7425C205.296 48.835 205.094 48.1292 204.741 47.6754C204.338 47.2217 203.884 46.9696 203.38 46.9696C202.876 46.9696 202.372 47.2217 201.968 47.7258C201.565 48.2804 201.363 48.9862 201.363 49.8937ZM212.808 52.6162C212.354 53.0195 211.9 53.2716 211.497 53.4229C211.094 53.5741 210.64 53.675 210.136 53.675C209.329 53.675 208.724 53.4733 208.27 53.07C207.817 52.6666 207.615 52.1625 207.615 51.5575C207.615 51.2046 207.716 50.8516 207.867 50.5996C208.018 50.2971 208.22 50.0954 208.522 49.8937C208.774 49.6921 209.077 49.5912 209.43 49.4904C209.682 49.44 210.035 49.3896 210.539 49.2887C211.547 49.1879 212.253 49.0367 212.757 48.8854C212.757 48.7342 212.757 48.6333 212.757 48.5829C212.757 48.0787 212.656 47.7258 212.404 47.5242C212.102 47.2217 211.598 47.1208 210.993 47.1208C210.388 47.1208 209.984 47.2217 209.682 47.4233C209.379 47.625 209.178 47.9779 209.077 48.4821L207.867 48.3308C207.968 47.8267 208.169 47.3729 208.421 47.0704C208.674 46.7679 209.026 46.5158 209.531 46.3142C209.984 46.1629 210.539 46.0621 211.194 46.0621C211.799 46.0621 212.304 46.1125 212.707 46.2638C213.11 46.415 213.362 46.6167 213.564 46.8183C213.766 47.02 213.866 47.3225 213.967 47.6754C214.018 47.8771 214.018 48.2804 214.018 48.835V50.4483C214.018 51.6079 214.068 52.3137 214.119 52.6162C214.169 52.9187 214.27 53.2212 214.421 53.4733H213.06C212.909 53.2716 212.858 52.9691 212.808 52.6162ZM212.707 49.8433C212.253 50.045 211.598 50.1962 210.69 50.2971C210.186 50.3475 209.833 50.4483 209.632 50.5492C209.43 50.65 209.279 50.7508 209.127 50.9525C209.027 51.1037 208.976 51.3054 208.976 51.5575C208.976 51.86 209.077 52.1625 209.329 52.3641C209.581 52.5658 209.934 52.6666 210.438 52.6666C210.892 52.6666 211.346 52.5658 211.699 52.3641C212.051 52.1625 212.354 51.86 212.505 51.5071C212.656 51.2046 212.707 50.8012 212.707 50.2971V49.8433ZM215.631 54.1287L216.841 54.28C216.891 54.6329 217.043 54.9354 217.244 55.0866C217.547 55.3387 217.95 55.4395 218.505 55.4395C219.059 55.4395 219.513 55.3387 219.816 55.0866C220.118 54.885 220.32 54.532 220.471 54.1287C220.521 53.8766 220.572 53.3725 220.572 52.5658C220.017 53.2212 219.362 53.5237 218.555 53.5237C217.547 53.5237 216.791 53.1708 216.236 52.465C215.681 51.7591 215.429 50.9021 215.429 49.8937C215.429 49.1879 215.581 48.5325 215.782 47.9779C216.034 47.3729 216.387 46.9192 216.891 46.6167C217.345 46.3142 217.95 46.1125 218.555 46.1125C219.412 46.1125 220.118 46.4654 220.673 47.1712V46.2638H221.832V52.5658C221.832 53.7254 221.731 54.4816 221.479 54.9858C221.227 55.4395 220.874 55.8429 220.37 56.095C219.866 56.347 219.261 56.4983 218.505 56.4983C217.648 56.4983 216.942 56.2966 216.387 55.8933C215.883 55.49 215.581 54.885 215.631 54.1287ZM216.639 49.7425C216.639 50.7004 216.841 51.4062 217.194 51.8096C217.597 52.2633 218.051 52.465 218.606 52.465C219.16 52.465 219.664 52.2633 220.017 51.8096C220.421 51.3558 220.572 50.7004 220.572 49.7425C220.572 48.835 220.37 48.1796 219.967 47.7258C219.564 47.2721 219.11 47.0704 218.555 47.0704C218.001 47.0704 217.547 47.2721 217.144 47.7258C216.841 48.23 216.639 48.8854 216.639 49.7425ZM228.386 52.6162C227.933 53.0195 227.479 53.2716 227.076 53.4229C226.672 53.5741 226.219 53.675 225.714 53.675C224.908 53.675 224.303 53.4733 223.849 53.07C223.395 52.6666 223.194 52.1625 223.194 51.5575C223.194 51.2046 223.294 50.8516 223.446 50.5996C223.597 50.2971 223.799 50.0954 224.101 49.8937C224.353 49.6921 224.656 49.5912 225.009 49.4904C225.261 49.44 225.614 49.3896 226.118 49.2887C227.126 49.1879 227.832 49.0367 228.336 48.8854C228.336 48.7342 228.336 48.6333 228.336 48.5829C228.336 48.0787 228.235 47.7258 227.983 47.5242C227.681 47.2217 227.176 47.1208 226.571 47.1208C225.966 47.1208 225.563 47.2217 225.261 47.4233C224.958 47.625 224.756 47.9779 224.656 48.4821L223.446 48.3308C223.546 47.8267 223.748 47.3729 224 47.0704C224.252 46.7679 224.605 46.5158 225.109 46.3142C225.563 46.1629 226.118 46.0621 226.773 46.0621C227.378 46.0621 227.882 46.1125 228.286 46.2638C228.689 46.415 228.941 46.6167 229.143 46.8183C229.344 47.02 229.445 47.3225 229.546 47.6754C229.596 47.8771 229.596 48.2804 229.596 48.835V50.4483C229.596 51.6079 229.647 52.3137 229.697 52.6162C229.748 52.9187 229.849 53.2212 230 53.4733H228.689C228.538 53.2716 228.437 52.9691 228.386 52.6162ZM228.286 49.8433C227.832 50.045 227.176 50.1962 226.269 50.2971C225.765 50.3475 225.412 50.4483 225.21 50.5492C225.009 50.65 224.857 50.7508 224.706 50.9525C224.605 51.1037 224.555 51.3054 224.555 51.5575C224.555 51.86 224.656 52.1625 224.908 52.3641C225.16 52.5658 225.513 52.6666 226.017 52.6666C226.471 52.6666 226.924 52.5658 227.277 52.3641C227.63 52.1625 227.933 51.86 228.084 51.5071C228.235 51.2046 228.286 50.8012 228.286 50.2971V49.8433Z" fill="#6D6E70"/>
<path d="M1.86523 10.2158V7.14038H3.17606C3.52898 7.14038 3.73064 7.19079 3.88189 7.2412C4.03314 7.29162 4.13398 7.39246 4.23481 7.54371C4.33564 7.69496 4.38606 7.84621 4.38606 8.04787C4.38606 8.29995 4.33564 8.45121 4.18439 8.60246C4.03314 8.7537 3.83148 8.85454 3.57939 8.90496C3.73064 9.00579 3.83148 9.05621 3.93231 9.15704C4.03314 9.25787 4.13398 9.40912 4.28522 9.6612L4.63814 10.2662H3.88189L3.42815 9.61078C3.2769 9.3587 3.17606 9.20746 3.07523 9.15704C3.02481 9.10662 2.9744 9.0562 2.87356 9.00578C2.82315 9.00578 2.72231 8.95538 2.57106 8.95538H2.47023V10.2158H1.86523ZM2.47023 8.40079H2.92398C3.22648 8.40079 3.42814 8.40079 3.47856 8.35037C3.52898 8.35037 3.62981 8.29996 3.62981 8.19913C3.68023 8.14871 3.68023 8.04788 3.68023 7.94705C3.68023 7.84621 3.62981 7.74538 3.57939 7.69497C3.52898 7.64455 3.42814 7.59413 3.32731 7.59413C3.2769 7.59413 3.12565 7.59413 2.87356 7.59413H2.3694V8.40079H2.47023Z" fill="#2B3695"/>
<path d="M3.07541 5.57788C3.93249 5.57788 4.68873 5.93079 5.24331 6.48537C5.79789 7.03995 6.15081 7.79621 6.15081 8.65329C6.15081 9.51037 5.79789 10.2666 5.24331 10.8212C4.68873 11.3758 3.93249 11.7287 3.07541 11.7287C2.21833 11.7287 1.46208 11.3758 0.907497 10.8212C0.352916 10.2666 0 9.51037 0 8.65329C0 7.79621 0.352916 7.03995 0.907497 6.48537C1.46208 5.93079 2.21833 5.57788 3.07541 5.57788ZM4.78957 6.88871C4.33582 6.43496 3.73082 6.18288 3.02499 6.18288C2.31916 6.18288 1.71416 6.43496 1.26041 6.88871C0.806664 7.34246 0.554581 7.94746 0.554581 8.65329C0.554581 9.35912 0.806664 9.96412 1.26041 10.4179C1.71416 10.8716 2.31916 11.1237 3.02499 11.1237C3.73082 11.1237 4.33582 10.8716 4.78957 10.4179C5.24331 9.96412 5.4954 9.35912 5.4954 8.65329C5.54581 7.94746 5.24331 7.34246 4.78957 6.88871Z" fill="#2B3695"/>
</svg>
